HIERARCHY
ROOT Hips
{
  OFFSET 0.0 0.0 0.0
  CHANNELS 6 Xposition Yposition Zposition Zrotation Yrotation Xrotation
  JOINT LHipJoint
  {
    OFFSET 0.0 0.0 0.0
    CHANNELS 3 Zrotation Yrotation Xrotation
    JOINT LeftUpLeg
    {
      OFFSET 1.363059998 -1.794630051 0.839290023
      CHANNELS 3 Zrotation Yrotation Xrotation
      JOINT LeftLeg
      {
        OFFSET 2.448110104 -6.726130009 0.0
        CHANNELS 3 Zrotation Yrotation Xrotation
        JOINT LeftFoot
        {
          OFFSET 2.562200069 -7.039589882 0.0
          CHANNELS 3 Zrotation Yrotation Xrotation
          JOINT LeftToeBase
          {
            OFFSET 0.157639995 -0.433109999 2.322550058
            CHANNELS 3 Zrotation Yrotation Xrotation
            End Site
            {
              OFFSET 0.0 -0.0 1.189659953
            }
          }
        }
      }
    }
  }
  JOINT RHipJoint
  {
    OFFSET 0.0 0.0 0.0
    CHANNELS 3 Zrotation Yrotation Xrotation
    JOINT RightUpLeg
    {
      OFFSET -1.305520058 -1.794630051 0.839290023
      CHANNELS 3 Zrotation Yrotation Xrotation
      JOINT RightLeg
      {
        OFFSET -2.54253006 -6.985549927 0.0
        CHANNELS 3 Zrotation Yrotation Xrotation
        JOINT RightFoot
        {
          OFFSET -2.568259954 -7.056230068 0.0
          CHANNELS 3 Zrotation Yrotation Xrotation
          JOINT RightToeBase
          {
            OFFSET -0.164729998 -0.452589989 2.363149881
            CHANNELS 3 Zrotation Yrotation Xrotation
            End Site
            {
              OFFSET -0.0 -0.0 1.21081996
            }
          }
        }
      }
    }
  }
  JOINT LowerBack
  {
    OFFSET 0.0 0.0 0.0
    CHANNELS 3 Zrotation Yrotation Xrotation
    JOINT Spine
    {
      OFFSET 0.028270001 2.035589933 -0.193379998
      CHANNELS 3 Zrotation Yrotation Xrotation
      JOINT Spine1
      {
        OFFSET 0.05672 2.04885006 -0.042750001
        CHANNELS 3 Zrotation Yrotation Xrotation
        JOINT Neck
        {
          OFFSET 0.0 0.0 0.0
          CHANNELS 3 Zrotation Yrotation Xrotation
          JOINT Neck1
          {
            OFFSET -0.054170001 1.74624002 0.172020003
            CHANNELS 3 Zrotation Yrotation Xrotation
            JOINT Head
            {
              OFFSET 0.10407 1.761360049 -0.123970002
              CHANNELS 3 Zrotation Yrotation Xrotation
              End Site
              {
                OFFSET 0.0372 1.770439982 -0.062410001
              }
            }
          }
        }
        JOINT LeftShoulder
        {
          OFFSET 0.0 0.0 0.0
          CHANNELS 3 Zrotation Yrotation Xrotation
          JOINT LeftArm
          {
            OFFSET 3.362410069 1.200889945 -0.311210006
            CHANNELS 3 Zrotation Yrotation Xrotation
            JOINT LeftForeArm
            {
              OFFSET 4.982999802 -0.0 -0.0
              CHANNELS 3 Zrotation Yrotation Xrotation
              JOINT LeftHand
              {
                OFFSET 3.483560085 -0.0 -0.0
                CHANNELS 3 Zrotation Yrotation Xrotation
                JOINT LeftFingerBase
                {
                  OFFSET 0.0 0.0 0.0
                  CHANNELS 3 Zrotation Yrotation Xrotation
                  JOINT LeftHandIndex1
                  {
                    OFFSET 0.715260029 -0.0 -0.0
                    CHANNELS 3 Zrotation Yrotation Xrotation
                    End Site
                    {
                      OFFSET 0.576659977 -0.0 -0.0
                    }
                  }
                }
                JOINT LThumb
                {
                  OFFSET 0.0 0.0 0.0
                  CHANNELS 3 Zrotation Yrotation Xrotation
                  End Site
                  {
                    OFFSET 0.585470021 -0.0 0.585470021
                  }
                }
              }
            }
          }
        }
        JOINT RightShoulder
        {
          OFFSET 0.0 0.0 0.0
          CHANNELS 3 Zrotation Yrotation Xrotation
          JOINT RightArm
          {
            OFFSET -3.136600018 1.374050021 -0.404650003
            CHANNELS 3 Zrotation Yrotation Xrotation
            JOINT RightForeArm
            {
              OFFSET -5.241899967 -0.0 -0.0
              CHANNELS 3 Zrotation Yrotation Xrotation
              JOINT RightHand
              {
                OFFSET -3.444169998 -0.0 -0.0
                CHANNELS 3 Zrotation Yrotation Xrotation
                JOINT RightFingerBase
                {
                  OFFSET 0.0 0.0 0.0
                  CHANNELS 3 Zrotation Yrotation Xrotation
                  JOINT RightHandIndex1
                  {
                    OFFSET -0.622529984 -0.0 -0.0
                    CHANNELS 3 Zrotation Yrotation Xrotation
                    End Site
                    {
                      OFFSET -0.501900017 -0.0 -0.0
                    }
                  }
                }
                JOINT RThumb
                {
                  OFFSET 0.0 0.0 0.0
                  CHANNELS 3 Zrotation Yrotation Xrotation
                  End Site
                  {
                    OFFSET -0.509559989 -0.0 0.509559989
                  }
                }
              }
            }
          }
        }
      }
    }
  }
}
MOTION
Frames: 5
Frame Time: 0.0083333
-5.604799271 9.308899879 -2.656603336 -2.787100315 -18.047498703 -54.969989777 0.0 -0.0 0.0 48.873806 3.518802404 -12.450600624 31.318012238 16.598707199 125.016304016 -3.608599424 -37.50239563 -8.082199097 3.073600531 -10.813300133 -31.65290451 0.0 -0.0 0.0 20.530397415 5.056999683 -18.194898605 -33.258491516 -15.110294342 132.110305786 -1.773799896 -2.815900564 -26.304208755 -1.632799864 8.055198669 -22.881998062 13.026900291 -1.658500314 17.900297165 2.456399918 0.389600009 3.726500034 -4.796299458 -0.003099919 -5.898999691 -8.464101791 0.947400212 12.243898392 7.980900288 -0.2958 12.822999954 3.842900991 -0.449099988 1.861399889 0.0 -0.0 0.0 41.753799438 -11.489202499 -57.134708405 65.479492188 -57.60149765 -38.935604095 0.0 0.0 -14.757100105 -12.306901932 9.160100937 -1.989100695 -7.125 0.0 0.0 -32.37789917 37.096805573 7.259595394 0.0 -0.0 0.0 -44.626903534 19.60590744 -50.584815979 -43.569812775 50.048305511 -21.136608124 0.0 0.0 -38.578701019 11.294697762 -29.545900345 -5.624800205 7.125 -0.0 0.0 43.58290863 -54.01890564 -11.305706024 
-5.655199051 9.424599648 -2.501502991 1.613400459 -11.642402649 -57.012992859 0.0 -0.0 0.0 36.838905334 2.442600489 -9.698799133 31.131906509 16.722093582 124.367118835 -2.471400738 -33.981307983 -10.327301025 3.387200832 -11.296898842 -33.287799835 0.0 -0.0 0.0 8.45389843 2.86590004 -15.519600868 -33.305690765 -15.068896294 132.291702271 -2.274800301 0.75270009 -28.34759903 -1.524800181 7.796999931 -22.09910202 4.434700012 -0.879299939 19.423999786 0.657299936 -0.246299952 4.189799309 -1.756399751 -0.197799936 -6.345198631 -8.659899712 1.085600019 13.008199692 7.954301834 -0.137400225 11.709499359 3.856200218 -0.389300019 1.403099895 0.0 -0.0 0.0 39.280193329 -9.585202217 -58.851902008 73.745895386 -58.977783203 -45.971881866 0.0 0.0 -15.280096054 -8.123699188 8.432099342 -1.19909966 -7.125 0.0 0.0 -28.977596283 36.823204041 6.519301414 0.0 -0.0 0.0 -43.493900299 17.497203827 -51.525600433 -45.913887024 51.208389282 -22.948894501 0.0 0.0 -40.259597778 11.479400635 -29.535200119 -5.71680069 7.125 -0.0 0.0 43.734508514 -53.97600174 -11.308204651 
-5.667899132 9.486000061 -2.365403175 3.049499273 -9.201800346 -57.10200119 0.0 -0.0 0.0 32.003604889 1.880501986 -8.723800659 31.026090622 16.790895462 124.000190735 -2.028299809 -32.527900696 -11.402798653 3.555600882 -11.544301033 -34.138202667 0.0 -0.0 0.0 3.414400578 1.939400434 -14.794100761 -33.338699341 -15.039898872 132.418701172 -2.461399794 2.311000109 -29.096094131 -1.486299872 7.702301979 -21.813499451 1.248700023 -0.595000088 20.07170105 -0.122199982 -0.565299988 4.27849865 -0.698499918 -0.310799956 -6.597900391 -8.387601852 1.15380013 13.769000053 7.583601952 0.026400017 10.429401398 4.028800011 -0.317600042 0.998000145 0.0 -0.0 0.0 36.743091583 -7.798899651 -60.558303833 81.942619324 -59.753311157 -53.027919769 0.0 0.0 -15.787099838 -2.349399805 6.888599873 -0.281899959 -7.125 0.0 0.0 -24.03219986 35.866092682 5.822702408 0.0 -0.0 0.0 -41.911403656 15.253705025 -52.553104401 -48.48380661 52.365406036 -24.968307495 0.0 0.0 -41.512294769 12.433002472 -29.240001678 -6.1466012 7.125 -0.0 0.0 44.299201965 -53.569904327 -11.020897865 
-5.665699005 9.552100182 -2.246003151 2.814399004 -9.482997894 -56.168018341 0.0 -0.0 0.0 32.12569809 1.86359942 -8.488400459 30.918901443 16.859609604 123.630004883 -2.023099661 -32.798397064 -11.784399986 3.677000284 -11.717699051 -34.74030304 0.0 -0.0 0.0 4.09250021 2.027300119 -14.793899536 -33.309688568 -15.065495491 132.306793213 -2.446000099 1.398100257 -29.233800888 -1.608399987 7.997800827 -22.707399368 1.452500224 -0.692600071 19.998603821 -0.174999997 -0.659200013 4.396999359 -0.848700285 -0.359400034 -6.435599327 -7.994598866 1.191699982 13.480399132 7.551899433 0.186499983 9.707998276 3.928299665 -0.211799979 0.789099872 0.0 -0.0 0.0 34.043205261 -5.780495167 -62.50799942 90.019950867 -59.999988556 -60.017253876 0.0 0.0 -16.383199692 5.104599476 4.979500294 0.444200009 -7.125 0.0 0.0 -17.66970253 34.522808075 4.734498024 0.0 -0.0 0.0 -40.190498352 12.76049614 -54.21100235 -51.500106812 53.582904816 -27.376800537 0.0 0.0 -42.232208252 13.538503647 -28.694103241 -6.59480238 7.125 -0.0 0.0 44.783790588 -52.957889557 -10.439889908 
-5.671298981 9.618100166 -2.128602982 2.196999788 -10.309000015 -55.309043884 0.0 -0.0 0.0 33.216304779 1.732001066 -8.051701546 30.775114059 16.950305939 123.13520813 -2.040599823 -33.279502869 -12.276102066 3.811100006 -11.904701233 -35.395591736 0.0 -0.0 0.0 5.877201557 2.092100143 -14.663900375 -33.24640274 -15.120807648 132.063919067 -2.417000055 0.305700123 -29.369998932 -1.68290019 8.171700478 -23.23690033 2.230799913 -0.799499989 20.056503296 0.021699993 -0.626699984 4.59139967 -1.089400291 -0.351800025 -6.259600639 -7.970200062 1.165599823 13.246100426 7.546401978 0.211699948 8.884299278 3.917099953 -0.188299969 0.550800085 0.0 -0.0 0.0 31.019298553 -4.050396442 -64.469917297 97.617591858 -59.779598236 -66.592102051 0.0 0.0 -17.292900085 14.180299759 1.759900212 0.444599986 -7.125 0.0 0.0 -9.918300629 31.695301056 3.270900011 0.0 -0.0 0.0 -38.246295929 10.34670639 -56.217689514 -54.760688782 54.743991852 -30.02050209 0.0 0.0 -41.930301666 15.099100113 -27.827798843 -7.178601265 7.125 -0.0 0.0 45.365901947 -52.018604279 -9.4503088 
